<?xml version="1.0" encoding="UTF-8"?>
<!-- Generator: https://ezgif.com/webp-to-svg -->
<svg version="1.1" xmlns="http://www.w3.org/2000/svg" width="96" height="96">
<path d="M0 0 C1.09 0 1.09 0 2.19 0.01 C3.33 0 3.33 0 4.5 0 C7.02 -0 9.54 -0 12.06 0 C13.81 0 15.55 0 17.3 -0 C20.96 -0 24.62 0 28.28 0.01 C32.99 0.01 37.69 0.01 42.4 0 C46 -0 49.61 -0 53.21 0 C54.95 0 56.68 0 58.42 -0 C60.84 -0 63.26 0 65.68 0.01 C66.4 0 67.13 0 67.87 0 C72.82 0.02 72.82 0.02 73.94 1.14 C74.04 3.56 74.07 5.96 74.07 8.39 C74.07 9.53 74.07 9.53 74.07 10.69 C74.08 13.22 74.07 15.74 74.07 18.26 C74.07 20.01 74.07 21.75 74.07 23.5 C74.07 27.16 74.07 30.82 74.07 34.48 C74.06 39.19 74.06 43.89 74.07 48.6 C74.07 52.2 74.07 55.8 74.07 59.41 C74.07 61.14 74.07 62.88 74.07 64.62 C74.08 67.04 74.07 69.46 74.07 71.88 C74.07 72.6 74.07 73.33 74.07 74.07 C74.05 79.02 74.05 79.02 72.94 80.14 C70.51 80.24 68.11 80.27 65.68 80.26 C64.92 80.27 64.16 80.27 63.38 80.27 C60.86 80.27 58.33 80.27 55.81 80.27 C54.07 80.27 52.32 80.27 50.58 80.27 C46.91 80.27 43.25 80.27 39.59 80.27 C34.89 80.26 30.18 80.26 25.48 80.27 C21.87 80.27 18.27 80.27 14.66 80.27 C12.93 80.27 11.19 80.27 9.46 80.27 C7.04 80.27 4.62 80.27 2.19 80.26 C1.47 80.27 0.75 80.27 0 80.27 C-4.95 80.25 -4.95 80.25 -6.06 79.14 C-6.16 76.71 -6.2 74.31 -6.19 71.88 C-6.19 71.12 -6.2 70.36 -6.2 69.58 C-6.2 67.05 -6.2 64.53 -6.2 62.01 C-6.2 60.27 -6.2 58.52 -6.2 56.78 C-6.2 53.11 -6.2 49.45 -6.19 45.79 C-6.19 41.09 -6.19 36.38 -6.2 31.68 C-6.2 28.07 -6.2 24.47 -6.2 20.86 C-6.2 19.13 -6.2 17.39 -6.2 15.66 C-6.2 13.24 -6.2 10.81 -6.19 8.39 C-6.19 7.67 -6.2 6.94 -6.2 6.2 C-6.17 0.31 -5.89 0.03 0 0 Z " fill="#FED500" transform="translate(14.06329345703125,7.864471435546875)"/>
<path d="M0 0 C3 1.88 3 1.88 5 4 C5 4.66 5 5.32 5 6 C2 8 2 8 -1 8 C-1 7.34 -1 6.68 -1 6 C-2.65 6.33 -4.3 6.66 -6 7 C-5.79 8.95 -5.79 8.95 -5 11 C-3.29 12.2 -3.29 12.2 -1.19 13 C2.22 14.58 4.82 15.82 7 19 C7.62 23.26 7.49 25.24 5.12 28.88 C2.28 31.72 0.67 32.19 -3.25 32.31 C-7.86 32.27 -10.47 31.09 -14 28 C-14.33 27.01 -14.66 26.02 -15 25 C-11.25 22 -11.25 22 -9 22 C-8.34 22.99 -7.68 23.98 -7 25 C-3.92 25.25 -3.92 25.25 -1 25 C-1 23.68 -1 22.36 -1 21 C-1.92 20.51 -1.92 20.51 -2.86 20.01 C-4.08 19.36 -4.08 19.36 -5.31 18.69 C-6.11 18.26 -6.91 17.83 -7.74 17.39 C-9.91 16.06 -11.45 15.01 -13 13 C-13.68 9.93 -13.58 7.08 -13 4 C-9.55 -0.42 -5.3 -1.09 0 0 Z " fill="#0C0A00" transform="translate(69,44)"/>
<path d="M0 0 C2.31 0 4.62 0 7 0 C7.12 4.04 7.19 8.08 7.25 12.12 C7.3 13.84 7.3 13.84 7.35 15.59 C7.48 26.35 7.48 26.35 3 31 C-0.65 32.22 -3.16 32.39 -7 32 C-9.33 30.54 -11.01 28.94 -13 27 C-12 24 -12 24 -9.94 22.81 C-9.3 22.54 -8.66 22.28 -8 22 C-7.34 22.66 -6.68 23.32 -6 24 C-4.35 24 -2.7 24 -1 24 C-0.67 16.08 -0.34 8.16 0 0 Z " fill="#0B0900" transform="translate(44,44)"/>
</svg>
