<?xml version="1.0" encoding="UTF-8"?>
<!-- Generator: https://ezgif.com/webp-to-svg -->
<svg version="1.1" xmlns="http://www.w3.org/2000/svg" width="480" height="480">
<path d="M0 0 C1.27 -0 2.54 -0.01 3.85 -0.01 C5.25 -0.01 6.66 -0.01 8.06 -0.01 C9.56 -0.01 11.05 -0.01 12.55 -0.01 C16.66 -0.02 20.77 -0.02 24.88 -0.02 C29.31 -0.02 33.74 -0.02 38.18 -0.03 C46.86 -0.04 55.54 -0.04 64.23 -0.04 C71.29 -0.04 78.35 -0.04 85.41 -0.04 C105.42 -0.05 125.43 -0.06 145.44 -0.06 C146.52 -0.06 147.6 -0.06 148.71 -0.06 C150.33 -0.06 150.33 -0.06 151.99 -0.06 C169.5 -0.06 187 -0.07 204.51 -0.08 C222.49 -0.09 240.46 -0.1 258.44 -0.1 C268.53 -0.1 278.62 -0.1 288.72 -0.11 C297.31 -0.12 305.9 -0.12 314.5 -0.12 C318.88 -0.11 323.26 -0.11 327.65 -0.12 C331.66 -0.13 335.68 -0.13 339.7 -0.12 C341.15 -0.12 342.6 -0.12 344.05 -0.13 C364.03 -0.2 364.03 -0.2 370.74 5.13 C373.93 9.31 374.25 13.08 374.18 18.17 C374.17 18.96 374.17 19.75 374.16 20.57 C373.9 30.1 371.82 39.18 369.69 48.44 C369.24 50.46 368.79 52.49 368.35 54.51 C367.36 58.97 366.37 63.42 365.37 67.87 C363.65 75.53 361.96 83.2 360.29 90.87 C356.57 107.84 352.83 124.81 349.07 141.77 C348.55 144.14 348.03 146.52 347.5 148.89 C344.3 163.38 341.09 177.87 337.89 192.36 C337.18 195.52 336.48 198.69 335.78 201.86 C335.61 202.63 335.44 203.41 335.26 204.2 C332.73 215.66 330.2 227.12 327.68 238.58 C325.4 248.92 323.11 259.26 320.82 269.6 C319.61 275.08 318.4 280.56 317.2 286.03 C316.09 291.08 314.97 296.12 313.85 301.16 C313.45 302.96 313.05 304.76 312.66 306.56 C310.71 315.52 308.52 324.3 305.64 333 C305.39 333.74 305.15 334.48 304.89 335.24 C301.58 344.9 297.04 351.47 287.74 356.13 C277.19 360.3 266.53 360.28 255.34 360.26 C253.87 360.26 252.4 360.27 250.94 360.27 C246.92 360.28 242.9 360.28 238.88 360.27 C234.54 360.27 230.2 360.28 225.86 360.28 C217.36 360.29 208.86 360.3 200.36 360.3 C193.45 360.3 186.54 360.3 179.63 360.3 C160.04 360.31 140.44 360.31 120.84 360.31 C119.79 360.31 118.73 360.31 117.64 360.31 C116.58 360.31 115.53 360.31 114.44 360.31 C97.3 360.31 80.17 360.32 63.03 360.34 C45.43 360.35 27.83 360.36 10.23 360.36 C0.35 360.36 -9.53 360.36 -19.41 360.37 C-27.82 360.38 -36.23 360.38 -44.64 360.38 C-48.93 360.37 -53.22 360.37 -57.51 360.38 C-61.44 360.39 -65.37 360.39 -69.3 360.38 C-70.72 360.38 -72.14 360.38 -73.56 360.38 C-96.02 360.47 -96.02 360.47 -103.26 354.13 C-106.73 349.68 -106.75 345.8 -106.66 340.39 C-106.65 339.55 -106.65 338.71 -106.64 337.84 C-106.43 329.28 -104.81 321.29 -102.8 313 C-102.42 311.36 -102.04 309.73 -101.67 308.1 C-100.86 304.58 -100.03 301.07 -99.2 297.56 C-97.84 291.84 -96.52 286.13 -95.19 280.41 C-93.26 272.06 -91.31 263.72 -89.36 255.38 C-86.18 241.8 -83.04 228.21 -79.92 214.61 C-79.52 212.87 -79.52 212.87 -79.11 211.09 C-78.02 206.36 -76.93 201.64 -75.85 196.91 C-73.93 188.57 -72.01 180.23 -70.09 171.89 C-64.89 149.37 -59.73 126.85 -54.67 104.3 C-53.9 100.86 -53.13 97.43 -52.35 94 C-51.85 91.78 -51.35 89.55 -50.85 87.32 C-50.61 86.23 -50.36 85.15 -50.11 84.03 C-48.69 77.7 -47.28 71.36 -45.87 65.03 C-45 61.14 -44.13 57.25 -43.26 53.37 C-42.86 51.59 -42.46 49.81 -42.07 48.03 C-34.83 15.09 -34.83 15.09 -22.82 6.75 C-15.4 2.25 -8.73 0.01 0 0 Z " fill="#0277BC" transform="translate(106.25920486450195,59.871365547180176)"/>
<path d="M0 0 C0 0.66 0 1.32 0 2 C0.66 2.33 1.32 2.66 2 3 C1.67 3.66 1.34 4.32 1 5 C3.64 5 6.28 5 9 5 C9.59 18.37 7.93 30.3 4.95 43.31 C4.5 45.34 4.05 47.36 3.61 49.38 C2.62 53.84 1.63 58.29 0.63 62.74 C-1.1 70.4 -2.78 78.07 -4.45 85.74 C-8.17 102.71 -11.92 119.68 -15.67 136.64 C-16.19 139.02 -16.72 141.39 -17.24 143.76 C-20.44 158.25 -23.65 172.74 -26.86 187.23 C-27.56 190.4 -28.26 193.56 -28.96 196.73 C-29.13 197.5 -29.3 198.28 -29.48 199.08 C-32.01 210.53 -34.54 221.99 -37.07 233.45 C-39.34 243.79 -41.63 254.14 -43.92 264.48 C-45.13 269.95 -46.34 275.43 -47.55 280.9 C-48.65 285.95 -49.77 290.99 -50.89 296.03 C-51.29 297.83 -51.69 299.63 -52.08 301.43 C-54.03 310.39 -56.22 319.17 -59.1 327.87 C-59.35 328.61 -59.6 329.35 -59.85 330.12 C-63.16 339.77 -67.7 346.34 -77 351 C-87.58 355.18 -98.26 355.14 -109.48 355.12 C-110.95 355.12 -112.43 355.12 -113.9 355.12 C-117.94 355.13 -121.98 355.12 -126.03 355.12 C-130.39 355.11 -134.75 355.11 -139.11 355.11 C-146.67 355.11 -154.22 355.11 -161.78 355.11 C-172.7 355.1 -183.62 355.09 -194.54 355.09 C-212.26 355.09 -229.98 355.08 -247.7 355.08 C-264.92 355.07 -282.13 355.06 -299.34 355.05 C-300.4 355.05 -301.46 355.05 -302.56 355.05 C-307.88 355.05 -313.2 355.05 -318.53 355.05 C-362.69 355.04 -406.84 355.02 -451 355 C-451 354.67 -451 354.34 -451 354 C-449.8 353.95 -448.59 353.9 -447.35 353.85 C-445.78 353.78 -444.2 353.7 -442.62 353.62 C-441.43 353.58 -441.43 353.58 -440.22 353.53 C-435.63 353.48 -435.63 353.48 -432 351 C-429.1 350.75 -426.3 350.63 -423.4 350.59 C-422.53 350.57 -421.66 350.55 -420.76 350.53 C-417.97 350.47 -415.17 350.42 -412.38 350.38 C-410.54 350.34 -408.71 350.3 -406.88 350.26 C-396.25 350.04 -385.63 349.95 -375 350 C-375 347.69 -375 345.38 -375 343 C-372.36 343 -369.72 343 -367 343 C-367 345.31 -367 347.62 -367 350 C-356.44 350 -345.88 350 -335 350 C-335 347.69 -335 345.38 -335 343 C-332.69 342.67 -330.38 342.34 -328 342 C-327.67 339.69 -327.34 337.38 -327 335 C-324.69 334.67 -322.38 334.34 -320 334 C-319.67 331.69 -319.34 329.38 -319 327 C-316.69 326.67 -314.38 326.34 -312 326 C-311.67 323.69 -311.34 321.38 -311 319 C-308.69 318.67 -306.38 318.34 -304 318 C-303.67 315.69 -303.34 313.38 -303 311 C-300.69 310.67 -298.38 310.34 -296 310 C-295.67 307.69 -295.34 305.38 -295 303 C-292.69 302.67 -290.38 302.34 -288 302 C-287.67 299.69 -287.34 297.38 -287 295 C-284.36 295 -281.72 295 -279 295 C-279 295.66 -279 296.32 -279 297 C-276.69 297 -274.38 297 -272 297 C-271.67 298.98 -271.34 300.96 -271 303 C-270.15 302.72 -270.15 302.72 -269.29 302.44 C-266.64 301.93 -265.01 302.28 -262.4 302.92 C-257.08 304.08 -252.04 304.29 -246.61 304.27 C-245.13 304.28 -245.13 304.28 -243.63 304.29 C-240.4 304.3 -237.18 304.3 -233.96 304.3 C-231.7 304.3 -229.45 304.31 -227.19 304.31 C-222.48 304.32 -217.76 304.32 -213.05 304.32 C-207.02 304.31 -200.99 304.33 -194.95 304.35 C-190.3 304.36 -185.65 304.37 -181 304.36 C-178.77 304.36 -176.55 304.37 -174.32 304.38 C-171.22 304.39 -168.11 304.38 -165 304.37 C-164.09 304.38 -163.17 304.39 -162.23 304.4 C-156.73 304.35 -152.87 303.61 -148 301 C-146.2 299.12 -146.2 299.12 -145.12 296.94 C-144.74 296.25 -144.35 295.55 -143.95 294.84 C-142.23 291.5 -141.88 289.57 -141.9 285.77 C-141.91 284.23 -141.91 284.23 -141.91 282.65 C-141.92 281.57 -141.93 280.49 -141.94 279.38 C-141.94 277.74 -141.94 277.74 -141.95 276.08 C-141.96 273.39 -141.98 270.69 -142 268 C-141.01 268 -140.02 268 -139 268 C-138.67 270.64 -138.34 273.28 -138 276 C-137.01 275.67 -136.02 275.34 -135 275 C-135.33 263.45 -135.66 251.9 -136 240 C-137.98 240 -139.96 240 -142 240 C-142.33 242.31 -142.66 244.62 -143 247 C-145.64 247 -148.28 247 -151 247 C-151 244.36 -151 241.72 -151 239 C-148.69 238.67 -146.38 238.34 -144 238 C-143.67 235.69 -143.34 233.38 -143 231 C-140.69 230.67 -138.38 230.34 -136 230 C-136 212.18 -136 194.36 -136 176 C-138.31 175.67 -140.62 175.34 -143 175 C-143 172.36 -143 169.72 -143 167 C-140.69 166.67 -138.38 166.34 -136 166 C-136 164.02 -136 162.04 -136 160 C-138.31 159.67 -140.62 159.34 -143 159 C-143.33 156.69 -143.66 154.38 -144 152 C-146.31 151.67 -148.62 151.34 -151 151 C-151 148.36 -151 145.72 -151 143 C-148.69 142.67 -146.38 142.34 -144 142 C-143.67 139.69 -143.34 137.38 -143 135 C-140.69 134.67 -138.38 134.34 -136 134 C-135.67 129.05 -135.34 124.1 -135 119 C-132.36 119 -129.72 119 -127 119 C-126.67 121.31 -126.34 123.62 -126 126 C-123.69 126.33 -121.38 126.66 -119 127 C-119 153.4 -119 179.8 -119 207 C-113.72 207 -108.44 207 -103 207 C-103.5 159.98 -103.5 159.98 -104 112 C-105.98 112 -107.96 112 -110 112 C-110.33 114.31 -110.66 116.62 -111 119 C-113.64 119 -116.28 119 -119 119 C-119 116.36 -119 113.72 -119 111 C-115.53 110.5 -115.53 110.5 -112 110 C-111.67 107.69 -111.34 105.38 -111 103 C-107.53 102.5 -107.53 102.5 -104 102 C-103.67 94.41 -103.34 86.82 -103 79 C-108.28 79 -113.56 79 -119 79 C-119.33 68.77 -119.66 58.54 -120 48 C-121.98 48 -123.96 48 -126 48 C-126.33 50.31 -126.66 52.62 -127 55 C-129.64 55 -132.28 55 -135 55 C-135 52.36 -135 49.72 -135 47 C-131.53 46.5 -131.53 46.5 -128 46 C-127.67 43.69 -127.34 41.38 -127 39 C-123.53 38.5 -123.53 38.5 -120 38 C-119.67 30.41 -119.34 22.82 -119 15 C-124.28 15 -129.56 15 -135 15 C-135 17.31 -135 19.62 -135 22 C-138.96 22.5 -138.96 22.5 -143 23 C-143.33 25.64 -143.66 28.28 -144 31 C-146.31 31 -148.62 31 -151 31 C-151 46.84 -151 62.68 -151 79 C-156.28 79 -161.56 79 -167 79 C-167 81.31 -167 83.62 -167 86 C-169.64 86.33 -172.28 86.66 -175 87 C-175.33 89.64 -175.66 92.28 -176 95 C-178.31 95 -180.62 95 -183 95 C-183 103.58 -183 112.16 -183 121 C-187.95 121.5 -187.95 121.5 -193 122 C-193.33 121.01 -193.66 120.02 -194 119 C-194.66 119 -195.32 119 -196 119 C-196 120.32 -196 121.64 -196 123 C-198.88 122.44 -198.88 122.44 -202 121 C-203.38 117.38 -203.38 117.38 -204 114 C-203.34 113.67 -202.68 113.34 -202 113 C-201.67 112.01 -201.34 111.02 -201 110 C-200.34 110 -199.68 110 -199 110 C-199.33 100.1 -199.66 90.2 -200 80 C-201.98 80 -203.96 80 -206 80 C-206.33 82.31 -206.66 84.62 -207 87 C-209.64 87 -212.28 87 -215 87 C-215 84.36 -215 81.72 -215 79 C-211.53 78.5 -211.53 78.5 -208 78 C-207.67 75.69 -207.34 73.38 -207 71 C-203.53 70.5 -203.53 70.5 -200 70 C-200 62.74 -200 55.48 -200 48 C-202.31 47.67 -204.62 47.34 -207 47 C-207 39.08 -207 31.16 -207 23 C-204.69 22.67 -202.38 22.34 -200 22 C-199.67 19.69 -199.34 17.38 -199 15 C-196.36 15 -193.72 15 -191 15 C-191 17.64 -191 20.28 -191 23 C-193.31 23.33 -195.62 23.66 -198 24 C-198 25.98 -198 27.96 -198 30 C-193.05 30.33 -188.1 30.66 -183 31 C-183 25.72 -183 20.44 -183 15 C-185.31 15 -187.62 15 -190 15 C-190 12.69 -190 10.38 -190 8 C-187.69 7.34 -185.38 6.68 -183 6 C-182.67 4.02 -182.34 2.04 -182 0 C-159.45 -0.15 -136.9 -0.3 -114.35 -0.44 C-103.88 -0.51 -93.41 -0.58 -82.94 -0.65 C-73.82 -0.71 -64.69 -0.77 -55.56 -0.83 C-50.73 -0.85 -45.9 -0.89 -41.07 -0.92 C-36.52 -0.95 -31.97 -0.98 -27.42 -1.01 C-25.75 -1.02 -24.08 -1.03 -22.42 -1.04 C-20.13 -1.06 -17.85 -1.07 -15.57 -1.08 C-13.65 -1.09 -13.65 -1.09 -11.7 -1.11 C-7.73 -0.99 -3.94 -0.55 0 0 Z " fill="#0177BC" transform="translate(471,65)"/>
<path d="M0 0 C5.28 0 10.56 0 16 0 C16.03 3.81 16.05 7.62 16.06 11.44 C16.07 12.53 16.08 13.61 16.09 14.74 C16.09 16.29 16.09 16.29 16.1 17.87 C16.11 19.31 16.11 19.31 16.11 20.78 C16 23 16 23 15 24 C12.67 24.04 10.33 24.04 8 24 C8.03 25.7 8.03 25.7 8.06 27.44 C8 31 8 31 7 32 C4.67 32.04 2.33 32.04 0 32 C0 34.64 0 37.28 0 40 C2.64 40 5.28 40 8 40 C7.97 38.3 7.97 38.3 7.94 36.56 C8 33 8 33 9 32 C12 31.88 12 31.88 15 32 C16 33 16 33 16.11 35.96 C16.11 37.25 16.1 38.55 16.1 39.88 C16.1 40.91 16.1 40.91 16.09 41.96 C16.09 44.16 16.08 46.36 16.06 48.56 C16.06 50.05 16.05 51.54 16.05 53.03 C16.04 56.69 16.02 60.34 16 64 C21.28 64 26.56 64 32 64 C32.03 67.81 32.05 71.62 32.06 75.44 C32.07 76.53 32.08 77.61 32.09 78.74 C32.09 80.29 32.09 80.29 32.1 81.87 C32.11 83.31 32.11 83.31 32.11 84.78 C32 87 32 87 31 88 C28.67 88.04 26.33 88.04 24 88 C24.03 89.7 24.03 89.7 24.06 91.44 C24 95 24 95 23 96 C20.67 96.04 18.33 96.04 16 96 C16 98.64 16 101.28 16 104 C18.64 104 21.28 104 24 104 C23.97 102.3 23.97 102.3 23.94 100.56 C24 97 24 97 25 96 C28 95.88 28 95.88 31 96 C32.89 97.89 32.12 100.64 32.12 103.15 C32.12 104.04 32.12 104.92 32.11 105.83 C32.11 106.76 32.11 107.69 32.11 108.64 C32.11 111.72 32.11 114.8 32.1 117.88 C32.1 120.01 32.09 122.14 32.09 124.26 C32.09 129.88 32.08 135.49 32.07 141.11 C32.06 146.83 32.05 152.56 32.05 158.28 C32.04 169.52 32.02 180.76 32 192 C26.72 192 21.44 192 16 192 C16 165.6 16 139.2 16 112 C13.69 112 11.38 112 9 112 C8 111 8 111 7.94 107.44 C7.96 106.3 7.98 105.17 8 104 C5.36 104 2.72 104 0 104 C0.01 105.07 0.02 106.14 0.04 107.25 C0.04 108.64 0.05 110.04 0.06 111.44 C0.07 112.14 0.08 112.85 0.09 113.58 C0.1 115.39 0.05 117.19 0 119 C-1 120 -1 120 -4.56 120.06 C-5.7 120.04 -6.83 120.02 -8 120 C-7.97 121.7 -7.97 121.7 -7.94 123.44 C-8 127 -8 127 -9 128 C-11.33 128.04 -13.67 128.04 -16 128 C-16 130.64 -16 133.28 -16 136 C-14.3 135.97 -14.3 135.97 -12.56 135.94 C-9 136 -9 136 -8 137 C-7.96 139.33 -7.96 141.67 -8 144 C-6.3 143.97 -6.3 143.97 -4.56 143.94 C-1 144 -1 144 0 145 C0.12 148 0.12 148 0 151 C-1 152 -1 152 -4.56 152.06 C-5.7 152.04 -6.83 152.02 -8 152 C-8 154.64 -8 157.28 -8 160 C-6.3 159.97 -6.3 159.97 -4.56 159.94 C-1 160 -1 160 0 161 C0.1 162.68 0.13 164.37 0.13 166.05 C0.13 167.13 0.14 168.21 0.14 169.32 C0.14 171.08 0.14 171.08 0.13 172.88 C0.13 174.67 0.13 174.67 0.14 176.5 C0.14 179.03 0.13 181.56 0.13 184.09 C0.13 187.98 0.13 191.87 0.14 195.77 C0.14 198.22 0.13 200.67 0.13 203.12 C0.13 204.3 0.14 205.47 0.14 206.68 C0.14 207.76 0.13 208.83 0.13 209.95 C0.13 211.38 0.13 211.38 0.13 212.84 C0 215 0 215 -1 216 C-3.33 216.04 -5.67 216.04 -8 216 C-7.97 217.7 -7.97 217.7 -7.94 219.44 C-8 223 -8 223 -9 224 C-11.33 224.04 -13.67 224.04 -16 224 C-16 226.64 -16 229.28 -16 232 C-13.36 232 -10.72 232 -8 232 C-8.03 230.3 -8.03 230.3 -8.06 228.56 C-8 225 -8 225 -7 224 C-4 223.88 -4 223.88 -1 224 C0 225 0 225 0.11 228.33 C0.11 229.8 0.11 231.28 0.1 232.75 C0.1 233.92 0.1 233.92 0.09 235.1 C0.09 237.59 0.08 240.08 0.06 242.56 C0.06 244.24 0.05 245.93 0.05 247.61 C0.04 251.74 0.02 255.87 0 260 C-1.32 260.66 -2.64 261.32 -4 262 C-4 259.03 -4 256.06 -4 253 C-4.99 253 -5.98 253 -7 253 C-7 255.31 -7 257.62 -7 260 C-6.34 260.33 -5.68 260.66 -5 261 C-5.66 261 -6.32 261 -7 261 C-6.83 261.62 -6.67 262.24 -6.5 262.88 C-5.26 270.59 -5.34 276.32 -9.57 283.09 C-12.47 286.97 -15.28 289.07 -20 290 C-21.42 290.09 -22.85 290.13 -24.27 290.13 C-25.12 290.14 -25.97 290.14 -26.84 290.15 C-27.76 290.15 -28.68 290.15 -29.63 290.15 C-30.6 290.15 -31.58 290.15 -32.59 290.16 C-35.82 290.16 -39.05 290.17 -42.28 290.17 C-44.53 290.17 -46.79 290.17 -49.04 290.18 C-53.77 290.18 -58.49 290.19 -63.22 290.19 C-69.26 290.19 -75.29 290.2 -81.32 290.22 C-85.98 290.23 -90.64 290.23 -95.29 290.23 C-97.52 290.23 -99.74 290.23 -101.96 290.24 C-112.87 290.28 -123.3 290.3 -134 288 C-134.66 288 -135.32 288 -136 288 C-136.33 286.02 -136.66 284.04 -137 282 C-139.31 282 -141.62 282 -144 282 C-144 281.34 -144 280.68 -144 280 C-146.64 280 -149.28 280 -152 280 C-151.98 281.13 -151.96 282.27 -151.94 283.44 C-152 287 -152 287 -153 288 C-155.33 288.04 -157.67 288.04 -160 288 C-159.98 289.13 -159.96 290.27 -159.94 291.44 C-160 295 -160 295 -161 296 C-163.33 296.04 -165.67 296.04 -168 296 C-167.98 297.13 -167.96 298.27 -167.94 299.44 C-168 303 -168 303 -169 304 C-171.33 304.04 -173.67 304.04 -176 304 C-175.98 305.13 -175.96 306.27 -175.94 307.44 C-176 311 -176 311 -177 312 C-179.33 312.04 -181.67 312.04 -184 312 C-183.98 313.13 -183.96 314.27 -183.94 315.44 C-184 319 -184 319 -185 320 C-187.33 320.04 -189.67 320.04 -192 320 C-191.98 321.13 -191.96 322.27 -191.94 323.44 C-192 327 -192 327 -193 328 C-195.33 328.04 -197.67 328.04 -200 328 C-200 330.31 -200 332.62 -200 335 C-210.56 335 -221.12 335 -232 335 C-232 332.69 -232 330.38 -232 328 C-234.64 328 -237.28 328 -240 328 C-240 330.31 -240 332.62 -240 335 C-243.98 335.2 -247.96 335.38 -251.94 335.56 C-253.07 335.62 -254.21 335.67 -255.38 335.73 C-256.46 335.78 -257.54 335.83 -258.65 335.88 C-259.65 335.93 -260.65 335.97 -261.68 336.02 C-264 336 -264 336 -265 335 C-265.12 331.5 -265.12 331.5 -265 328 C-264.67 327.67 -264.34 327.34 -264 327 C-261.36 327 -258.72 327 -256 327 C-256 319.41 -256 311.82 -256 304 C-253.69 304 -251.38 304 -249 304 C-249.02 302.7 -249.04 301.4 -249.06 300.06 C-249.08 298.71 -249.07 297.35 -249 296 C-248 295 -248 295 -246.15 294.9 C-244.1 294.93 -242.05 294.97 -240 295 C-240 294.01 -240 293.02 -240 292 C-238.68 292 -237.36 292 -236 292 C-236 293.32 -236 294.64 -236 296 C-234.02 295.67 -232.04 295.34 -230 295 C-229.67 296.32 -229.34 297.64 -229 299 C-229.99 299.33 -230.98 299.66 -232 300 C-232 301.32 -232 302.64 -232 304 C-230.68 304 -229.36 304 -228 304 C-228 302.35 -228 300.7 -228 299 C-226.35 299 -224.7 299 -223 299 C-223.53 298.58 -224.06 298.15 -224.61 297.71 C-230.97 292.43 -235.25 287.35 -236.44 278.88 C-235.67 272.12 -232.3 268 -227.23 263.59 C-224.49 261.41 -221.66 259.34 -218.81 257.3 C-217.02 256.02 -215.25 254.72 -213.49 253.41 C-211.02 251.59 -208.55 249.78 -206.07 247.97 C-201.62 244.73 -197.18 241.46 -192.75 238.19 C-191.95 237.6 -191.15 237.01 -190.33 236.41 C-186.29 233.42 -182.24 230.44 -178.2 227.45 C-170.37 221.67 -162.53 215.93 -154.62 210.25 C-148.38 205.76 -142.26 201.16 -136.18 196.45 C-130.91 192.37 -125.5 188.47 -120.11 184.54 C-116.17 181.66 -112.24 178.77 -108.31 175.88 C-107.11 174.99 -107.11 174.99 -105.88 174.08 C-99.56 169.42 -93.27 164.73 -87 160 C-88.48 156.64 -90.38 154.3 -92.88 151.62 C-96.63 147.53 -100.28 143.36 -103.88 139.12 C-108.22 134.02 -112.66 129.04 -117.2 124.12 C-120.26 120.82 -123.24 117.46 -126.19 114.06 C-128.43 111.51 -130.71 109.01 -133 106.5 C-136.46 102.71 -139.87 98.88 -143.24 95.01 C-148.57 88.93 -154.03 82.96 -159.5 77 C-160.43 75.98 -161.36 74.97 -162.29 73.95 C-164.02 72.07 -165.75 70.2 -167.49 68.33 C-175.4 59.76 -181.55 52.63 -181.41 40.59 C-180.39 34.09 -174.78 29.28 -169.84 25.32 C-164.57 21.54 -159.9 19.27 -153.29 19.62 C-137.63 22.21 -126.6 38.63 -116.84 49.91 C-114.43 52.64 -111.97 55.32 -109.5 58 C-105.88 61.93 -102.31 65.9 -98.81 69.94 C-95.72 73.46 -92.55 76.9 -89.39 80.36 C-87.48 82.47 -85.61 84.59 -83.75 86.75 C-80.18 90.84 -76.54 94.87 -72.88 98.88 C-72.28 99.54 -71.68 100.21 -71.06 100.9 C-67.96 104.27 -65.57 106.78 -61 108 C-61 106.68 -61 105.36 -61 104 C-60.34 104 -59.68 104 -59 104 C-58.67 104.66 -58.34 105.32 -58 106 C-54.7 106 -51.4 106 -48 106 C-48 97.42 -48 88.84 -48 80 C-45.69 80 -43.38 80 -41 80 C-41.03 78.05 -41.03 78.05 -41.06 76.06 C-41.08 74.71 -41.07 73.35 -41 72 C-40 71 -40 71 -38.15 70.9 C-36.1 70.93 -34.05 70.97 -32 71 C-32 68.69 -32 66.38 -32 64 C-26.72 64 -21.44 64 -16 64 C-16 48.16 -16 32.32 -16 16 C-13.69 16 -11.38 16 -9 16 C-9.03 14.05 -9.03 14.05 -9.06 12.06 C-9.08 10.71 -9.07 9.35 -9 8 C-8 7 -8 7 -6.15 6.9 C-4.1 6.93 -2.05 6.97 0 7 C0 4.69 0 2.38 0 0 Z " fill="#0377BC" transform="translate(336,80)"/>
<path d="M0 0 C10.79 6.48 19.18 17.79 27.33 27.21 C29.74 29.95 32.2 32.63 34.67 35.3 C38.29 39.24 41.86 43.21 45.36 47.25 C48.38 50.67 51.46 54.03 54.55 57.4 C56.56 59.63 58.55 61.88 60.52 64.16 C64.1 68.26 67.81 72.23 71.55 76.18 C77.17 82.15 82.72 88.18 88.17 94.3 C92.56 99.2 96.96 104.09 101.42 108.92 C103.67 111.38 105.92 113.84 108.17 116.3 C108.8 116.98 109.42 117.65 110.06 118.34 C114.49 123.25 118.21 128.54 118.8 135.3 C118.41 141.9 113.28 146.44 108.67 150.68 C103.42 155.08 97.78 158.95 92.19 162.88 C88.6 165.41 85.04 167.98 81.48 170.55 C80.73 171.1 79.97 171.65 79.2 172.21 C71.29 177.93 63.43 183.73 55.58 189.53 C53.16 191.32 50.74 193.1 48.31 194.88 C40.88 200.34 33.47 205.82 26.11 211.37 C20.6 215.52 15.03 219.59 9.42 223.62 C2.12 228.86 -5.09 234.22 -12.28 239.63 C-18.9 244.62 -25.55 249.54 -32.23 254.44 C-35.58 256.9 -38.93 259.37 -42.23 261.9 C-63.34 278.08 -63.34 278.08 -74.83 277.3 C-81.76 275.41 -85.64 271.01 -89.83 265.3 C-91.93 260.93 -92.48 257.12 -91.83 252.3 C-88.42 244.26 -81.5 239.52 -74.63 234.6 C-72.85 233.32 -71.08 232.02 -69.32 230.72 C-66.85 228.9 -64.38 227.08 -61.9 225.28 C-57.45 222.03 -53.01 218.76 -48.58 215.49 C-47.78 214.9 -46.98 214.32 -46.16 213.71 C-42.11 210.73 -38.07 207.74 -34.03 204.76 C-26.2 198.98 -18.35 193.23 -10.45 187.55 C-4.21 183.07 1.92 178.46 7.99 173.75 C13.26 169.67 18.68 165.78 24.06 161.85 C28 158.97 31.93 156.07 35.86 153.18 C37.06 152.29 37.06 152.29 38.29 151.39 C44.61 146.73 50.9 142.03 57.17 137.3 C55.7 133.94 53.79 131.61 51.3 128.93 C47.54 124.83 43.89 120.67 40.3 116.43 C35.96 111.33 31.51 106.34 26.97 101.42 C23.91 98.12 20.93 94.76 17.98 91.36 C15.74 88.82 13.46 86.31 11.17 83.8 C7.71 80.01 4.3 76.19 0.93 72.32 C-4.4 66.23 -9.86 60.26 -15.33 54.3 C-16.26 53.29 -17.19 52.27 -18.12 51.25 C-19.84 49.37 -21.58 47.5 -23.32 45.64 C-31.22 37.06 -37.38 29.93 -37.23 17.9 C-36.22 11.4 -30.61 6.59 -25.67 2.62 C-17.21 -3.43 -9.52 -4.76 0 0 Z " fill="#F7F9FA" transform="translate(191.828125,102.6953125)"/>
<path d="M0 0 C1.01 -0.01 2.03 -0.01 3.07 -0.02 C6.41 -0.04 9.74 -0.01 13.07 0.02 C15.39 0.02 17.72 0.02 20.05 0.02 C24.91 0.02 29.78 0.04 34.64 0.07 C40.87 0.12 47.1 0.12 53.33 0.11 C58.13 0.1 62.93 0.11 67.73 0.13 C70.03 0.14 72.33 0.14 74.62 0.14 C77.84 0.14 81.05 0.16 84.26 0.2 C85.2 0.19 86.15 0.19 87.12 0.18 C94.28 0.3 98.7 1.88 103.88 7.06 C107.63 13.04 108.6 19.81 107.56 26.74 C105.49 32.22 102.62 36.63 97.56 39.74 C94.75 40.62 92.2 40.87 89.26 40.89 C88.4 40.89 87.55 40.9 86.67 40.9 C85.28 40.9 85.28 40.9 83.86 40.91 C82.87 40.91 81.89 40.92 80.88 40.92 C77.62 40.94 74.36 40.94 71.11 40.95 C68.84 40.95 66.58 40.96 64.31 40.97 C59.57 40.98 54.82 40.98 50.07 40.98 C43.99 40.99 37.91 41.01 31.83 41.04 C27.15 41.06 22.47 41.07 17.8 41.07 C15.55 41.07 13.31 41.08 11.07 41.09 C7.93 41.11 4.8 41.11 1.66 41.1 C0.74 41.11 -0.19 41.12 -1.14 41.13 C-7.24 41.09 -12.29 40.38 -17.14 36.31 C-22.48 29.34 -23.31 23.37 -22.44 14.74 C-20.91 8.94 -17.55 5.45 -12.77 2 C-8.63 -0.23 -4.61 -0.07 0 0 Z " fill="#F7FAFA" transform="translate(222.435791015625,329.25537109375)"/>
<path d="M0 0 C0.33 0 0.66 0 1 0 C1.04 0.68 1.07 1.35 1.11 2.05 C1.18 2.94 1.24 3.83 1.31 4.75 C1.37 5.63 1.43 6.51 1.49 7.42 C2.06 10.32 3.08 11.79 5 14 C4.34 14 3.68 14 3 14 C2.67 14.99 2.34 15.98 2 17 C0.15 13.07 -0.22 10.01 -0.12 5.69 C-0.11 4.62 -0.09 3.55 -0.07 2.45 C-0.05 1.64 -0.02 0.83 0 0 Z " fill="#CDE9F3" transform="translate(200,344)"/>
<path d="M0 0 C1.15 0.93 2.3 1.87 3.44 2.81 C4.08 3.33 4.71 3.86 5.37 4.39 C7 6 7 6 8 9 C6.68 9 5.36 9 4 9 C3.73 8.03 3.46 7.06 3.19 6.06 C2.8 5.05 2.4 4.04 2 3 C1.01 2.67 0.02 2.34 -1 2 C-0.67 1.34 -0.34 0.68 0 0 Z " fill="#207DAC" transform="translate(161,140)"/>
<path d="M0 0 C1.17 0.95 2.34 1.91 3.5 2.88 C4.15 3.41 4.8 3.94 5.47 4.49 C5.97 4.99 6.48 5.49 7 6 C7 6.66 7 7.32 7 8 C4.83 7.49 3 7 1 6 C0.38 2.94 0.38 2.94 0 0 Z " fill="#D6EBF9" transform="translate(265,182)"/>
</svg>
